<?xml version="1.0" encoding="UTF-8" standalone="no"?>
<!-- Created with Inkscape (http://www.inkscape.org/) -->

<svg
   version="1.1"
   id="svg1"
   width="380"
   height="443"
   viewBox="0 0 380 443"
   sodipodi:docname="w.svg"
   inkscape:version="1.4 (e7c3feb100, 2024-10-09)"
   xmlns:inkscape="http://www.inkscape.org/namespaces/inkscape"
   xmlns:sodipodi="http://sodipodi.sourceforge.net/DTD/sodipodi-0.dtd"
   xmlns="http://www.w3.org/2000/svg"
   xmlns:svg="http://www.w3.org/2000/svg">
  <defs
     id="defs1">
    <inkscape:path-effect
       effect="bspline"
       id="path-effect17"
       is_visible="true"
       lpeversion="1.3"
       weight="33.333333"
       steps="2"
       helper_size="0"
       apply_no_weight="true"
       apply_with_weight="true"
       only_selected="false"
       uniform="false" />
    <inkscape:path-effect
       effect="bspline"
       id="path-effect16"
       is_visible="true"
       lpeversion="1.3"
       weight="33.333333"
       steps="2"
       helper_size="0"
       apply_no_weight="true"
       apply_with_weight="true"
       only_selected="false"
       uniform="false" />
    <inkscape:path-effect
       effect="bspline"
       id="path-effect15"
       is_visible="true"
       lpeversion="1.3"
       weight="33.333333"
       steps="2"
       helper_size="0"
       apply_no_weight="true"
       apply_with_weight="true"
       only_selected="false"
       uniform="false" />
    <inkscape:path-effect
       effect="bspline"
       id="path-effect14"
       is_visible="true"
       lpeversion="1.3"
       weight="33.333333"
       steps="2"
       helper_size="0"
       apply_no_weight="true"
       apply_with_weight="true"
       only_selected="false"
       uniform="false" />
    <inkscape:path-effect
       effect="bspline"
       id="path-effect13"
       is_visible="true"
       lpeversion="1.3"
       weight="33.333333"
       steps="2"
       helper_size="0"
       apply_no_weight="true"
       apply_with_weight="true"
       only_selected="false"
       uniform="false" />
    <inkscape:path-effect
       effect="bspline"
       id="path-effect12"
       is_visible="true"
       lpeversion="1.3"
       weight="33.333333"
       steps="2"
       helper_size="0"
       apply_no_weight="true"
       apply_with_weight="true"
       only_selected="false"
       uniform="false" />
    <inkscape:path-effect
       effect="bspline"
       id="path-effect11"
       is_visible="true"
       lpeversion="1.3"
       weight="33.333333"
       steps="2"
       helper_size="0"
       apply_no_weight="true"
       apply_with_weight="true"
       only_selected="false"
       uniform="false" />
    <inkscape:path-effect
       effect="bspline"
       id="path-effect10"
       is_visible="true"
       lpeversion="1.3"
       weight="33.333333"
       steps="2"
       helper_size="0"
       apply_no_weight="true"
       apply_with_weight="true"
       only_selected="false"
       uniform="false" />
    <inkscape:path-effect
       effect="bspline"
       id="path-effect9"
       is_visible="true"
       lpeversion="1.3"
       weight="33.333333"
       steps="2"
       helper_size="0"
       apply_no_weight="true"
       apply_with_weight="true"
       only_selected="false"
       uniform="false" />
    <inkscape:path-effect
       effect="bspline"
       id="path-effect8"
       is_visible="true"
       lpeversion="1.3"
       weight="33.333333"
       steps="2"
       helper_size="0"
       apply_no_weight="true"
       apply_with_weight="true"
       only_selected="false"
       uniform="false" />
    <inkscape:path-effect
       effect="bspline"
       id="path-effect7"
       is_visible="true"
       lpeversion="1.3"
       weight="33.333333"
       steps="2"
       helper_size="0"
       apply_no_weight="true"
       apply_with_weight="true"
       only_selected="false"
       uniform="false" />
    <inkscape:path-effect
       effect="bspline"
       id="path-effect6"
       is_visible="true"
       lpeversion="1.3"
       weight="33.333333"
       steps="2"
       helper_size="0"
       apply_no_weight="true"
       apply_with_weight="true"
       only_selected="false"
       uniform="false" />
    <inkscape:path-effect
       effect="bspline"
       id="path-effect5"
       is_visible="true"
       lpeversion="1.3"
       weight="33.333333"
       steps="2"
       helper_size="0"
       apply_no_weight="true"
       apply_with_weight="true"
       only_selected="false"
       uniform="false" />
    <inkscape:path-effect
       effect="bspline"
       id="path-effect4"
       is_visible="true"
       lpeversion="1.3"
       weight="33.333333"
       steps="2"
       helper_size="0"
       apply_no_weight="true"
       apply_with_weight="true"
       only_selected="false"
       uniform="false" />
    <inkscape:path-effect
       effect="bspline"
       id="path-effect3"
       is_visible="true"
       lpeversion="1.3"
       weight="33.333333"
       steps="2"
       helper_size="0"
       apply_no_weight="true"
       apply_with_weight="true"
       only_selected="false"
       uniform="false" />
    <inkscape:path-effect
       effect="bspline"
       id="path-effect2"
       is_visible="true"
       lpeversion="1.3"
       weight="33.333333"
       steps="2"
       helper_size="0"
       apply_no_weight="true"
       apply_with_weight="true"
       only_selected="false"
       uniform="false" />
  </defs>
  <sodipodi:namedview
     id="namedview1"
     pagecolor="#ffffff"
     bordercolor="#000000"
     borderopacity="0.25"
     inkscape:showpageshadow="2"
     inkscape:pageopacity="0.0"
     inkscape:pagecheckerboard="0"
     inkscape:deskcolor="#d1d1d1"
     showgrid="false"
     inkscape:zoom="0.98"
     inkscape:cx="240.81633"
     inkscape:cy="38.77551"
     inkscape:window-width="1920"
     inkscape:window-height="1011"
     inkscape:window-x="0"
     inkscape:window-y="0"
     inkscape:window-maximized="1"
     inkscape:current-layer="layer1" />
  <g
     inkscape:groupmode="layer"
     id="layer1"
     inkscape:label="Layer 1"
     style="display:inline">
    <path
       style="fill:#81bf39;stroke-width:2.059;stroke-linecap:round"
       d="m 223.76726,35.946745 c -2.76134,0.739645 -6.6075,1.923078 -9.61541,3.796871 -3.00791,1.873792 -5.17749,4.437842 3.10672,8.136116 8.28421,3.698274 27.02151,8.530525 36.93276,10.305659 9.91126,1.775134 10.99605,0.493108 11.24259,-1.331372 0.24654,-1.824481 -0.34516,-4.191296 -3.45173,-7.445775 -3.10656,-3.25448 -8.72775,-7.39641 -14.49704,-10.009833 -5.76929,-2.613423 -11.68633,-3.698214 -15.48319,-4.092687 -3.79687,-0.394474 -5.47336,-0.09862 -8.2347,0.641021 z"
       id="path6"
       inkscape:path-effect="#path-effect17"
       inkscape:original-d="m 224.85207,35.502959 c -3.84615,1.183432 -7.69231,2.366863 -11.53846,3.550295 -2.16967,2.564154 -4.33925,5.128206 -6.50888,7.692308 18.73805,4.832444 37.47535,9.664694 56.21302,14.497042 1.08484,-1.282077 2.16963,-2.564103 3.25444,-3.846154 -0.59173,-2.366912 -1.18343,-4.733728 -1.77515,-7.100592 -5.62141,-4.142095 -11.2426,-8.284024 -16.8639,-12.426036 -5.91728,-1.084834 -11.83432,-2.169625 -17.75148,-3.254437 -1.67657,0.295864 -3.35306,0.591716 -5.02959,0.887574 z" />
    <path
       id="path5"
       style="fill:#b93786;stroke-width:2.059;stroke-linecap:round"
       d="m 160.60938,267.35156 c -1.50667,-0.023 -3.11597,0.22197 -4.55469,0.81055 -1.64426,0.67266 -3.06512,1.79219 -3.8125,3.02539 -0.74739,1.2332 -0.82253,2.58009 -0.22461,3.70117 0.59792,1.12109 1.86875,2.01811 3.88672,2.50391 2.01796,0.4858 4.78244,0.56016 6.57617,-0.22461 1.79373,-0.78477 2.61628,-2.43022 3.02734,-4.03711 0.41106,-1.60689 0.41146,-3.17657 -0.33593,-4.18555 -0.7474,-1.00897 -2.24222,-1.45625 -3.92383,-1.56836 -0.2102,-0.014 -0.42344,-0.0221 -0.63867,-0.0254 z m -42.4668,2.06836 c -0.97569,-0.009 -1.99962,0.20792 -2.89649,0.57227 -1.19581,0.4858 -2.16628,1.23268 -2.68945,2.87695 -0.52317,1.64427 -0.59935,4.18596 -0.0762,6.0918 0.52318,1.90584 1.64532,3.17683 3.21484,3.58789 1.56953,0.41106 3.58725,-0.0382 5.08203,-1.00977 1.49478,-0.97161 2.46551,-2.46576 2.65235,-4.29687 0.18684,-1.83111 -0.41029,-3.99793 -1.23242,-5.41797 -0.82214,-1.42004 -1.86837,-2.09415 -3.10157,-2.31836 -0.3083,-0.056 -0.62789,-0.083 -0.95312,-0.0859 z" />
    <path
       id="path4"
       style="fill:#dd3437;stroke-width:2.059;stroke-linecap:round"
       d="m 151.73047,203.99609 c -1.05458,-0.13406 -2.53852,0.0109 -4.85156,0.69336 -4.62609,1.36484 -12.56832,4.88018 -18.62305,8.07032 -6.05473,3.19013 -10.22198,6.05595 -13.41211,9.34375 -3.19013,3.28779 -5.40429,6.99798 -6.86914,11.7832 -1.46485,4.78521 -2.17979,10.6447 -2.58008,15.52734 -0.40028,4.88264 -0.56958,12.71699 -0.043,13.53321 0.52662,0.81621 1.5706,2.43638 2.74805,3.78906 1.17745,1.35268 2.48728,2.43605 4.54492,2.97851 2.05764,0.54247 4.86389,0.54234 6.60352,1.10352 1.73962,0.56118 2.4136,1.68473 2.71289,2.99414 0.29929,1.30941 0.22367,2.80559 -0.50586,4.50781 -0.72953,1.70223 -2.11368,3.61014 -3.27344,5.08789 -1.15975,1.47775 -2.0953,2.52453 -2.75,6.13477 -0.6547,3.61023 -1.02842,9.78355 -1.98242,15.54492 -0.954,5.76137 -2.48686,11.11123 -3.8711,16.68555 -1.38421,5.57432 -2.61997,11.37298 -2.63867,15.13281 -0.0187,3.75983 1.17817,5.48085 3.17969,7.12695 2.00152,1.64611 4.80717,3.21773 8.00586,4.4336 3.19869,1.21587 6.78998,2.07481 9.82031,2.48632 3.03033,0.41153 5.49961,0.37515 8.88672,-0.70703 3.38712,-1.08218 11.99728,-5.33607 14.6543,-8.96093 2.65702,-3.62486 7.96591,-10.86851 12.57812,-18.08789 4.61222,-7.21938 8.52743,-14.4149 11.4375,-17.69532 2.91008,-3.28042 4.81593,-2.64574 7.30274,-1.11133 2.4868,1.53443 5.55479,3.96994 7.46484,5.38868 1.91006,1.41873 3.44123,2.23962 1.90625,4.08203 -1.53498,1.8424 -4.55991,5.47258 -8.54101,8.39844 -3.98111,2.92585 -8.91849,5.14764 -13.65821,7.86523 -4.73972,2.71759 -13.87575,9.18233 -15.07422,10.26172 -1.19846,1.07939 -3.64649,3.28323 -5.9414,5.15234 -2.29491,1.86911 -4.43641,3.40353 -6.96289,4.66016 -2.52649,1.25662 -5.43632,2.23537 -7.84375,2.96289 -2.40743,0.72752 -4.31272,1.20218 -5.42383,3.09375 -1.11111,1.89156 -1.42937,5.19951 -3.57227,10.67578 -2.14289,5.47627 -6.1108,13.12109 -9.93359,19.28516 -3.82279,6.16407 -7.50014,10.84695 -8.20117,14.14062 -0.70104,3.29367 1.57448,5.19864 5.30468,6.40235 3.73021,1.2037 8.91458,1.70675 18.92774,1.57031 10.01316,-0.13644 39.6989,-1.68905 42.74414,-2.12305 3.04524,-0.434 9.14197,-1.30307 14.61914,-5.77344 5.47718,-4.47037 10.33372,-12.54043 23.82422,-14.5957 13.4905,-2.05527 35.61423,1.9042 47.83398,2.76367 12.21976,0.85947 14.53637,-1.38269 14.69532,-5.42187 0.15894,-4.03918 -3.83842,-15.70707 -3.47461,-18.05274 0.3638,-2.34567 1.09569,-7.06152 2.96484,-13.99414 1.86915,-6.93261 4.87538,-16.08151 6.05664,-20.67773 1.18127,-4.59622 0.53682,-4.63872 -0.42969,-4.81055 -0.9665,-0.17182 -2.25438,-0.47274 -3.82226,-0.75195 -1.56789,-0.27921 -3.41443,-0.53733 -4.61719,-1.26758 -1.20275,-0.73025 -1.76186,-1.932 -2.21289,-3.13477 -0.45103,-1.20276 -0.79482,-2.4066 -0.42969,-3.5664 0.36513,-1.1598 1.43813,-2.27589 3.56446,-3.95117 2.12632,-1.67528 5.3053,-3.90878 7.30273,-5.79883 1.99743,-1.89005 2.81462,-3.43601 3.35156,-4.96094 0.53695,-1.52492 0.79482,-3.02971 0.42969,-4.4043 -0.36513,-1.37458 -1.35415,-2.61976 -3.48047,-4.72461 -2.12632,-2.10484 -5.39139,-5.06892 -7.88281,-6.89453 -2.49143,-1.8256 -4.20954,-2.51165 -6.03516,-2.2539 -1.82562,0.25774 -3.75867,1.45933 -6.61523,2.61914 -2.85657,1.1598 -6.63608,2.27765 -10.97461,3.28711 -4.33854,1.00946 -9.23555,1.91035 -13.05859,2.55468 -3.82305,0.64434 -6.57109,1.03144 -9.10547,1.6543 -2.53439,0.62286 -4.85391,1.4825 -6.07813,1.71875 -1.22422,0.23625 -1.35333,-0.15085 -0.70898,-1.69726 0.64434,-1.54642 2.06122,-4.25346 4.33789,-9.32227 2.27666,-5.06881 5.41259,-12.49957 6.95898,-17.43945 1.54639,-4.93989 1.50362,-7.38782 0.51563,-11.06055 -0.988,-3.67273 -2.92059,-8.56967 -5.11133,-12.86523 -2.19075,-4.29557 -4.63958,-7.98936 -7.66797,-11.53321 -3.02839,-3.54385 -6.63618,-6.93834 -11.33984,-9.6875 -4.70367,-2.74916 -10.5035,-4.85373 -15.59375,-5.51953 -5.09025,-0.6658 -9.47176,0.10763 -12.90821,0.77344 -3.43645,0.66581 -5.92638,1.22469 -7.88086,1.50391 -1.95448,0.27921 -3.37344,0.27908 -4.70507,-0.45118 -1.33163,-0.73025 -2.57662,-2.19002 -4.0586,-4.10156 -1.48197,-1.91153 -3.19964,-4.27395 -4.5957,-5.92773 -1.39606,-1.65379 -2.47043,-2.59936 -3.66211,-3.46485 -0.59584,-0.43274 -1.22081,-0.8464 -2.27539,-0.98047 z m 8.64648,63.12696 c 0.30975,-0.007 0.60617,0.0303 0.90039,0.10547 0.94152,0.24038 1.86383,0.87974 2.54493,1.86132 0.6811,0.98158 1.12208,2.30387 1.08203,3.58594 -0.0401,1.28207 -0.56115,2.52533 -1.94336,3.38672 -1.38222,0.86139 -3.62523,1.34199 -5.56836,1.02148 -1.94313,-0.32051 -3.58697,-1.44214 -4.24805,-2.58398 -0.66107,-1.14184 -0.3405,-2.30392 0.70117,-3.50586 1.04167,-1.20194 2.80579,-2.44536 4.16797,-3.14648 0.9365,-0.48203 1.68184,-0.70831 2.36328,-0.72461 z m 148.59571,46.2539 c -0.24721,-0.0519 -0.43995,0.37159 -1.20899,2.06836 -1.02539,2.26237 -3.07551,6.78838 -4.65429,10.71094 -1.57879,3.92256 -2.68684,7.24215 -3.82618,11.05078 -1.13933,3.80864 -2.31123,8.1061 -1.36718,11.45899 0.94404,3.35289 4.00384,5.76104 8.54492,7.92578 4.54107,2.16473 10.56314,4.08464 13.96484,4.89843 3.4017,0.8138 4.18424,0.52151 4.5586,-0.69921 0.37435,-1.22073 0.34179,-3.36909 -0.24415,-7.47071 -0.58594,-4.10162 -1.72589,-10.15555 -3.1582,-15.49414 -1.43231,-5.33858 -3.15819,-9.96091 -4.86719,-13.57422 -1.709,-3.6133 -3.40038,-6.21809 -4.71875,-7.89453 -1.31837,-1.67644 -2.26237,-2.42448 -2.73437,-2.79883 -0.118,-0.0936 -0.20666,-0.16434 -0.28906,-0.18164 z" />
    <path
       id="path3"
       style="display:inline;fill:#ff0000;stroke-width:2.059;stroke-linecap:round"
       d="m 279.76953,115.76758 c -0.67847,0.016 -1.27504,0.25705 -1.85156,0.68945 -1.5374,1.15306 -2.93578,3.66884 -6.46485,11.42578 -3.52904,7.75694 -9.18856,20.75456 -14.11523,30.36328 -4.92666,9.60873 -9.12,15.82721 -13.69727,21.38282 -4.57725,5.5556 -9.53813,10.44791 -15.09374,14.99023 -5.55563,4.54232 -11.70551,8.73577 -16.52735,11.49609 -4.82184,2.76033 -8.31672,4.08805 -10.90234,5.38086 -2.58562,1.29282 -4.26267,2.55091 -2.20117,4.78711 2.06149,2.2362 7.86221,5.45082 12.125,8.2461 4.26278,2.79527 6.98802,5.16953 11.70507,4.78515 4.71705,-0.38437 11.42523,-3.52869 18.3086,-6.91797 6.88337,-3.38927 13.94254,-7.0223 17.92578,-8.41992 3.98323,-1.39761 4.89173,-0.55867 4.75195,1.01367 -0.13977,1.57235 -1.32935,3.87794 -2.79687,5.93946 -1.46753,2.06151 -3.21417,3.87754 -4.05274,5.24023 -0.83857,1.36269 -0.76877,2.2723 1.25781,3.35547 2.0266,1.08317 6.01111,2.34064 9.71485,3.73828 3.70374,1.39764 7.12666,2.93456 8.97851,5.31055 1.85186,2.37599 2.13088,5.59094 1.81641,9.57422 -0.29296,3.7108 -1.07041,8.02578 -1.12305,10.86718 -0.49739,1.33308 -0.99763,2.68313 -1.55078,4.00586 -1.49741,3.58077 -3.38476,6.90102 -4.65429,9.86329 -1.26954,2.96226 -1.92125,5.56572 -1.30274,8.16992 0.61851,2.60419 2.50649,5.20896 4.58985,7.45508 2.08335,2.24611 4.3613,4.1328 6.60742,5.40234 2.24612,1.26954 4.4609,1.92057 7,2.53906 2.53909,0.6185 5.4023,1.20443 8.625,1.26953 3.22269,0.0651 6.80338,-0.38927 8.6914,-2.96093 1.88803,-2.57166 2.08399,-7.26038 1.88868,-11.58985 -0.19532,-4.32946 -0.78192,-8.30075 -0.7168,-11.62109 0.0651,-3.32034 0.7819,-5.9889 1.30273,-8.65821 0.52084,-2.6693 0.84636,-5.33918 0.97657,-7.35742 0.0545,-0.84461 0.0642,-1.57009 -0.0762,-2.23437 0.68563,-3.36394 1.19667,-8.22417 1.4336,-15.87695 0.3494,-11.28599 0.14132,-28.33782 -0.0684,-43.53711 -0.20965,-15.1993 -0.4203,-28.5465 -1.4336,-37.35157 -1.01329,-8.80507 -2.83061,-13.0673 -5.13672,-17.01562 -2.3061,-3.94833 -5.10007,-7.58271 -8.66406,-11.4961 -3.56398,-3.91338 -7.89743,-8.10538 -10.90234,-10.30664 -1.87807,-1.37578 -3.2364,-1.97388 -4.36719,-1.94726 z m -147.45312,18.85156 c -0.28892,-0.0376 -0.61757,-0.0378 -0.9961,0.008 -0.5047,0.0609 -1.09976,0.20058 -1.81054,0.4375 -2.84315,0.94771 -7.54813,3.43269 -14.21485,7.15821 -6.66671,3.72551 -15.29436,8.6924 -22.582029,13.75781 -7.287667,5.06541 -13.236373,10.2286 -17.876953,15.35937 -4.640582,5.13077 -7.972434,10.22896 -10.521485,14.77149 -2.549051,4.54253 -4.315251,8.52914 -6.439453,17.05859 -2.124202,8.52946 -4.607588,21.60044 -7.058594,33.85547 -2.451005,12.25504 -4.868887,23.69389 -6.927734,35.19727 -2.058847,11.50338 -3.757911,23.0707 -5.228516,36.27343 -1.470605,13.20273 -2.712916,28.04045 -3.203125,37.64844 -0.490209,9.60799 -0.227573,13.98603 0.197266,17.38477 0.424839,3.39873 1.012275,5.81801 1.535156,8.23632 0.522882,2.41834 0.979775,4.83615 2.15625,7.77735 1.176475,2.9412 3.072783,6.4039 14.935547,5.16211 11.862764,-1.2418 33.692644,-7.18775 47.32031,-11.10938 13.62767,-3.92163 19.05215,-5.81783 22.18946,-7.61523 3.1373,-1.7974 3.9866,-3.49648 4.24804,-5.22852 0.26145,-1.73204 -0.0652,-3.4979 -2.54883,-5.19726 -2.48366,-1.69937 -7.12497,-3.33308 -10.78515,-5.22852 -3.66018,-1.89544 -6.33913,-4.05064 -7.51563,-7.58008 -1.17649,-3.52943 -0.85029,-8.43198 0.32617,-15.16406 1.17648,-6.73207 3.20395,-15.29353 4.68946,-21.24219 1.48551,-5.94866 2.43025,-9.28516 2.29883,-13.52929 -0.13142,-4.24414 -1.33982,-9.39707 -3.05079,-14.04688 -1.71096,-4.64981 -3.92506,-8.79491 -5.13281,-13.46484 -1.20775,-4.66993 -1.40795,-9.86328 -0.82422,-15.51953 0.58374,-5.65626 1.95131,-11.77656 3.72266,-16.40625 1.77135,-4.62969 3.94506,-7.76884 7.04492,-10.94922 3.09986,-3.18039 7.12623,-6.40181 12.01758,-9.64258 4.89135,-3.24077 10.64863,-6.50037 13.92969,-8.85547 3.28105,-2.3551 4.08515,-3.80443 3.05859,-8.61523 -1.02656,-4.81081 -3.88424,-12.98426 -5.41406,-20.81446 -1.52982,-7.83019 -1.73066,-15.31676 -2.0918,-20.97851 -0.36113,-5.66176 -0.88281,-9.49705 -1.14453,-11.42383 -0.26172,-1.92678 -1.62458,-5.17774 -2.45508,-6.2832 -0.46715,-0.62183 -0.98091,-1.07851 -1.84765,-1.19141 z m 45.55273,167.8418 c -1.62071,-0.072 -2.68143,1.16616 -3.98047,3.61718 -1.73205,3.26804 -3.88905,8.69221 -5.62109,12.64649 -1.73204,3.95427 -3.03949,6.43868 -3.43164,8.46484 -0.39215,2.02616 0.13086,3.59441 1.96094,3.75782 1.83006,0.1634 4.9681,-1.07815 8.95507,-3.39844 3.98698,-2.3203 8.82416,-5.71934 11.50391,-8.5625 2.67974,-2.84316 3.20068,-5.12963 1.33789,-8.10352 -1.86279,-2.97389 -6.11088,-6.6337 -8.88867,-7.9082 -0.69445,-0.31863 -1.2957,-0.48967 -1.83594,-0.51367 z" />
    <path
       id="path2"
       style="display:inline;fill:#ffccaa;stroke-width:2.059;stroke-linecap:round"
       d="m 156.46094,134.78711 c -0.42439,-0.0132 -0.87353,-0.009 -1.34961,0.0117 -3.80865,0.16277 -9.3431,1.33333 -12.43555,5.5 -3.09244,4.16667 -3.74284,11.3287 -3.67773,18.58789 0.0651,7.25919 0.84568,14.61583 2.21289,21.09375 1.36721,6.47793 3.32092,12.07679 6.38086,16.69922 3.05994,4.62244 7.22654,8.26756 10.05859,11.39258 2.83204,3.12503 4.32877,5.72914 5.92383,7.61718 1.59507,1.88803 3.28774,3.06056 5.46875,3.45117 2.18102,0.39063 4.84953,6.8e-4 10.12305,-1.43164 5.27351,-1.43232 13.15163,-3.90622 19.6621,-6.25 6.51046,-2.34377 11.65296,-4.55792 15.88477,-6.86914 4.2318,-2.31122 7.55334,-4.71935 11.6875,-8.26757 4.13417,-3.54822 9.08071,-8.23695 12.92188,-12.3711 3.84118,-4.13415 6.57686,-7.7148 5.73046,-11.71875 -0.8464,-4.00395 -5.27342,-8.42969 -8.20312,-10.77344 -2.9297,-2.34375 -4.36258,-2.60547 -7.65039,-2.3125 -3.28781,0.29298 -8.43095,1.13997 -12.69531,2.2793 -4.26435,1.13934 -7.64907,2.57227 -10.41602,3.35352 -2.76695,0.78125 -4.91532,0.91083 -8.39844,-0.13086 -3.48313,-1.04168 -8.30201,-3.25454 -13.83593,-5.72852 -5.53391,-2.47399 -11.78255,-5.20893 -15.36329,-9.01758 -3.58074,-3.80864 -4.49281,-8.69205 -5.99023,-11.55664 -1.31024,-2.50652 -3.06834,-3.46648 -6.03906,-3.55859 z m 106.83398,77.14453 c -1.02901,0.0213 -3.0607,0.65446 -7.59765,2.75 -7.25913,3.35286 -20.93229,10.44922 -27.50782,14.84375 -6.57552,4.39453 -6.05339,6.08723 -4.42578,9.86328 1.62761,3.77606 4.36065,9.63536 5.98828,13.67188 1.62763,4.03651 2.14974,6.24932 2.11719,9.43945 -0.0325,3.19013 -0.61979,7.35738 -2.70312,12.43555 -2.08334,5.07816 -5.66338,11.06634 -7.87696,14.67968 -2.21358,3.61335 -3.06053,4.8509 0.65039,4.81836 3.71093,-0.0325 11.98039,-1.33462 19.10938,-2.92968 7.12898,-1.59507 13.11713,-3.48306 17.12109,-4.78516 4.00397,-1.3021 6.02212,-2.01822 7.51953,-3.32031 1.4301,-1.24356 2.39027,-3.04377 3.55078,-5.55469 4.9e-4,0.52267 0.0447,1.05596 0.13868,1.59961 l 6.54882,-14.51953 c -0.24061,0.0834 -0.59065,0.15794 -0.79492,0.24609 0.6831,-1.3849 1.34286,-2.80437 1.98242,-4.55859 1.13934,-3.12502 2.24609,-7.35673 2.83204,-11.32813 0.58594,-3.97139 0.65234,-7.68095 -3.15625,-10.77343 -3.8086,-3.09249 -11.49081,-5.56769 -15.91797,-7.09766 -4.42716,-1.52997 -5.60025,-2.11458 -5.92578,-2.86328 -0.32554,-0.74871 0.1953,-1.66015 1.5625,-3.22266 1.36719,-1.56251 3.582,-3.77732 5.24218,-5.63281 1.66018,-1.85549 2.76562,-3.3522 3.15625,-4.55664 0.39064,-1.20444 0.0664,-2.11653 -0.51953,-2.76758 -0.21973,-0.24414 -0.47634,-0.45028 -1.09375,-0.4375 z m 43.91797,84.64063 c -2.00699,0.44303 -3.7894,0.86387 -4.11719,1.06054 -0.91075,0.54645 -5.82812,0.54492 -5.82812,0.54492 l -12.02149,-1.27343 -1.45703,3.82422 -1.11133,0.082 c -0.17437,0.79977 -0.472,1.63568 -1.07031,2.57422 -1.66015,2.60418 -5.11064,5.86064 -7.51953,8.36718 -2.40889,2.50654 -3.77472,4.26366 -4.32812,6.11914 -0.55341,1.85549 -0.29298,3.80858 0.68359,4.78516 0.97657,0.97658 2.6686,0.97721 4.84961,0.91211 2.181,-0.0651 4.84958,-0.19531 5.14258,2.92969 0.29299,3.125 -1.7897,9.50514 -3.48243,15.03906 -1.69272,5.53391 -2.99543,10.22131 -3.93945,14.25781 -0.94402,4.03651 -1.52929,7.42054 -1.04101,9.50391 0.48827,2.08336 2.05076,2.86522 5.07812,1.98633 3.02736,-0.8789 7.51883,-3.41729 10.9043,-6.90039 3.38546,-3.48311 5.66404,-7.91142 7.71484,-12.85938 2.05081,-4.94796 3.87498,-10.41661 5.14453,-15.03906 1.26955,-4.62245 1.98437,-8.3971 2.86328,-12.53125 0.87892,-4.13416 1.92187,-8.62626 2.60547,-12.98828 0.52047,-3.321 0.78126,-6.70735 0.92969,-10.39453 z" />
    <path
       id="path1"
       style="display:inline;fill:#000000"
       d="m 245.01953,26.259766 c -6.29288,0.06005 -11.91042,1.486593 -14.68359,4.259765 -0.66245,0.66245 -3.42298,1.499644 -6.13477,1.859375 -4.4126,0.585352 -19.86522,7.660625 -21.22656,9.71875 -0.28914,0.43714 -5.46414,2.895062 -11.5,5.462891 -6.03585,2.567829 -13.73889,6.629994 -17.11719,9.027344 C 168.66628,60.626504 157,72.684405 157,74.527344 c 0,0.442866 -0.68687,1.517534 -1.52539,2.388672 -3.21675,3.341921 -6.49216,9.335398 -8.91992,16.316406 -1.38832,3.992115 -2.98082,7.409618 -3.53907,7.595698 -0.55826,0.1861 -1.01562,0.8711 -1.01562,1.52149 0,0.6504 -1.83295,4.32086 -4.07422,8.15625 -2.24127,3.83539 -4.71102,9.40812 -5.48633,12.38476 -0.77532,2.97665 -1.52791,5.49574 -1.67383,5.59766 -5.995,4.18764 -30.64172,20.02668 -34.160151,21.95313 -8.411136,4.60536 -15.948859,10.12073 -21.710938,15.88281 -5.648238,5.64824 -14.252143,19.16257 -15.488281,24.32812 -0.374868,1.56649 -0.988188,3.29766 -1.363281,3.84766 -2.01419,2.95342 -9.565946,39.28707 -10.59961,51 -0.591603,6.70373 -2.868605,15.88893 -4.46289,18 -0.415362,0.55 -1.002598,2.8 -1.304688,5 -0.30209,2.2 -1.26542,8.275 -2.140625,13.5 -2.267824,13.53898 -4.291102,35.17447 -5.585937,59.73633 -0.934327,17.72332 -0.884167,22.27147 0.300781,27.5 1.185329,5.23021 1.205974,7.17182 0.126953,11.76367 -0.710833,3.025 -1.310684,9.03056 -1.333984,13.3457 -0.0494,9.14797 1.700187,13.1224 6.417969,14.57422 6.225836,1.91589 36.392454,2.68163 86.539062,2.19727 27.82783,-0.26879 86.07768,0.62649 86.78516,1.33398 0.31488,0.31491 1.95325,0.34784 3.64257,0.0723 3.13526,-0.51143 19.96627,-1.17552 52.07227,-2.05274 9.9,-0.27049 25.425,-1.4046 34.5,-2.51953 9.075,-1.11493 19.19492,-2.34648 22.48828,-2.73828 7.78013,-0.92556 8.70879,-2.67501 8.91797,-16.8125 0.14293,-9.65975 -0.0464,-10.72507 -3.04297,-17.10156 -2.14398,-4.56225 -3.41878,-9.10203 -3.87109,-13.79883 -1.56568,-16.25809 -8.29852,-37.15911 -15.01563,-46.61328 l -3.27734,-4.61524 0.29883,-21.90429 c 0.19868,-14.51226 0.75012,-23.41861 1.63281,-26.38672 1.0296,-3.46212 1.33756,-15.61602 1.35156,-53.48047 0.0209,-56.42313 0.14484,-55.42929 -8.8164,-70.13867 l -5.45508,-8.95703 -0.67969,-15.45118 C 296.60781,88.93599 291.74918,65.05019 286.02539,53.392578 281.5123,44.200777 271.93043,34.220099 263.75977,30.201172 c -5.4779,-2.694434 -12.44736,-4.001459 -18.74024,-3.941406 z m -16.87695,11.923828 c 1.45846,-0.05393 2.93311,-0.04143 4.32031,0.04297 1.84961,0.112528 3.54537,0.354968 4.84375,0.742188 10.93207,3.260304 20.86854,9.72901 22.81836,14.857422 0.51239,1.347811 0.75354,2.627313 0.53711,2.84375 -0.21644,0.216436 -3.49089,-1.233204 -7.27734,-3.222656 -8.29052,-4.35595 -16.17128,-6.820581 -26.88477,-8.40625 -11.11014,-1.644375 -13.31758,-2.180343 -11.5,-2.794922 0.825,-0.278957 2.26523,-1.173848 3.20117,-1.988282 1.33133,-1.158497 5.56604,-1.912432 9.94141,-2.074218 z m 53.29101,81.173826 c 0.93243,0.0234 2.02101,0.69063 3.35938,1.95703 1.48878,1.40873 5.18203,4.69041 8.20703,7.29297 7.63954,6.57268 12.76743,16.21961 14.5625,27.39258 1.47279,9.16694 1.99199,67.7366 0.78516,88.67969 -0.29598,5.1364 -0.34208,7.98073 -1.09375,9.72656 l -2.57618,11.85937 c 0.2415,1.722 0.45061,9.75387 0.47071,19.97657 0.006,2.85711 -0.0195,5.11531 -0.0449,7.4082 -1.24265,0.0653 -2.81913,0.50995 -4.45899,0.91602 -2.41346,0.59763 -4.96127,1.11076 -7.60937,0.82617 -2.64811,-0.2846 -5.39795,-1.36721 -7.3086,-1.76563 -0.46084,-0.0961 -0.86904,-0.15152 -1.24414,-0.17773 -0.71857,-1.93675 -1.54897,-3.45798 -2.18164,-3.49219 -0.44057,-0.0238 -3.16991,-2.16763 -6.0664,-4.76367 l -5.26758,-4.7207 1.54492,-5.19922 c 1.81639,-6.11644 4.40526,-8.27026 9.96094,-8.28516 2.21512,-0.006 6.27595,-0.69203 9.02343,-1.52539 3.37028,-1.02227 7.48541,-1.36732 10.24219,-1.11914 l 1.76758,-1.35547 0.18945,-2.3125 0.008,-1.67969 -0.9121,-1.49804 0.16406,-0.38282 c -1.76373,0.3514 -4.16453,0.6238 -7.45508,1.07813 -3.85,0.53158 -8.69218,1.20282 -10.75977,1.49219 -2.87231,0.40201 -3.65814,0.20593 -3.33007,-0.83008 0.23616,-0.74576 0.99592,-5.74094 1.6875,-11.10156 1.24652,-9.66221 1.23757,-9.76892 -1.08594,-12.24219 C 279.43677,232.77082 265.55259,227 261.5332,227 260.14046,227 259,226.75719 259,226.46094 c 0,-0.29625 1.8,-2.41163 4,-4.70117 3.20659,-3.33711 4,-4.90278 4,-7.89063 0,-2.05496 -0.70586,-4.43046 -1.57227,-5.29687 -1.84336,-1.84336 -1.6562,-1.81678 -4.61328,-0.69336 l -2.31445,0.88086 0.12891,-22.38282 c 0.073,-12.61577 0.55039,-22.92561 1.09375,-23.6289 0.5302,-0.68625 2.77321,-4.87305 4.98437,-9.30274 2.21116,-4.42969 5.1809,-9.89129 6.59961,-12.13867 1.41871,-2.24738 2.34681,-4.3192 2.0625,-4.60352 -0.28431,-0.2843 0.2323,-1.96667 1.14844,-3.73828 0.91614,-1.77162 2.32465,-5.43632 3.1289,-8.14453 1.11395,-3.75109 2.23307,-5.50185 3.78711,-5.46289 z m -151.84375,17.36524 c 1.19422,-0.15444 2.29154,0.30763 3.50196,1.35742 2.11558,1.83483 2.26763,2.82372 2.5,16.1875 0.2815,16.1883 1.66088,26.31661 4.30273,31.5957 1.00111,2.00048 2.07031,5.21172 2.37695,7.13672 0.30663,1.925 0.85001,4.23767 1.20704,5.13867 0.50332,1.27014 -1.37299,2.79526 -8.35547,6.79102 -4.95316,2.83448 -11.16237,6.9343 -13.79688,9.11133 -5.53119,4.57071 -7.03187,4.86345 -8.26758,1.61328 -0.49033,-1.28965 -1.50328,-2.97715 -2.25195,-3.75 C 110.05796,211.13145 107.43861,206.45 104.98633,201.5 99.08698,189.592 93.974989,181.94443 85.25,171.97266 83.4625,169.92973 82,167.78692 82,167.21094 c 0,-0.57598 1.6875,-2.07844 3.75,-3.33789 2.0625,-1.25944 4.2,-2.8389 4.75,-3.50977 0.55,-0.67087 4.471543,-3.06192 8.714844,-5.31445 9.500696,-5.04339 23.593516,-13.61585 26.285156,-15.98828 1.60396,-1.41374 2.89562,-2.18346 4.08984,-2.33789 z m 30.18164,3.45898 c 1.74594,-0.44525 2.00075,4.72468 -0.38867,10.44336 -1.3744,3.28941 -1.32765,3.57641 0.9043,5.56445 2.5762,2.29469 14.24222,5.74336 19.57031,5.78516 2.64154,0.0207 3.22656,0.36161 2.75,1.60351 -1.36969,3.56935 7.75712,9.19865 16.39258,10.11133 1.375,0.14532 5.11072,0.63854 8.30078,1.09571 5.20243,0.74556 6.15464,0.59086 9.24024,-1.50586 1.89205,-1.28569 3.38977,-2.66227 3.33007,-3.0586 -0.0595,-0.39634 -0.0553,-1.60848 0.01,-2.69336 0.10765,-1.7931 0.2724,-1.74762 1.81055,0.5 3.29107,4.80913 5.10746,4.6726 8.22851,-0.61718 2.23012,-3.77978 3.22055,-4.12711 5.4375,-1.91016 0.825,0.825 1.89838,1.5 2.38477,1.5 0.48639,0 2.12089,1.29103 3.63281,2.86914 2.10488,2.19702 2.41518,2.99692 1.32812,3.41406 -0.78079,0.29963 -1.69654,1.82109 -2.03515,3.38086 -0.71233,3.28132 -15.14666,18.53205 -21.79297,23.02539 -5.19866,3.51463 -17.66355,8.44995 -34.375,13.60938 -8.8386,2.72879 -15.32178,3.87266 -17.28125,3.05078 -0.7043,-0.29541 -2.414,-2.77304 -3.79883,-5.50586 -1.56119,-3.08087 -3.84901,-5.75338 -6.02148,-7.03516 -4.1297,-2.43659 -9.29168,-10.13044 -12.73438,-18.97851 -2.7486,-7.06416 -5.23526,-23.91995 -4.34179,-29.42578 0.90152,-5.55539 2.01462,-6.39711 6.44726,-4.8711 3.61709,1.24525 3.81396,1.18754 6.49219,-1.875 1.51935,-1.73736 3.45817,-4.42507 4.30859,-5.97265 0.87016,-1.58351 1.6192,-2.35549 2.20117,-2.50391 z m -83.462886,32.94531 c 1.642085,-0.0274 4.759943,1.91339 7.71289,5.01758 C 87.775422,182.09074 97,196.22225 97,198.02734 97,198.56252 97.355606,199 97.791016,199 c 0.43541,0 1.484677,1.4625 2.332034,3.25 0.84736,1.7875 3.03569,6.175 4.86133,9.75 5.78573,11.32987 5.64902,10.71193 3.36328,15.32422 -1.13812,2.29657 -3.01257,9.27133 -4.16602,15.5 -2.74098,14.80141 -2.26913,23.74169 1.58008,29.9668 5.18984,8.39324 6.50175,11.72649 6.99023,17.75781 l 0.49024,6.05078 -9.22657,3.67969 c -5.074251,2.02357 -12.313433,5.7126 -16.087886,8.19922 C 84.153281,310.96514 80.82232,313 80.525391,313 78.645725,313 55.460093,327.87745 51.189453,331.82422 46.195897,336.43909 44.523395,340 47.349609,340 c 1.236565,0 2.923051,-1.14438 13.574219,-9.20703 C 62.890404,329.30433 67.425,326.68201 71,324.96484 c 3.575,-1.71717 7.175,-3.52383 8,-4.01367 0.825,-0.48984 3.309891,-1.73345 5.521484,-2.76367 2.211593,-1.03022 4.714614,-2.56618 5.5625,-3.41406 1.912477,-1.91248 8.404186,-5.2631 13.802736,-7.12305 5.63196,-1.94037 6.99504,-0.3715 4.875,5.61133 -4.33175,12.22436 -6.79971,24.1389 -6.10938,29.49219 0.98211,7.61604 7.41171,12.75502 17.44532,13.94336 2.72845,0.32314 5.18728,0.95518 5.46484,1.40429 1.30255,2.10757 -2.49962,4.93303 -10.00781,7.4375 -4.43049,1.47785 -9.03903,3.30383 -10.24219,4.05664 -1.20316,0.75282 -5.928164,1.80272 -10.5,2.33399 -4.571837,0.53128 -13.9375,2.79129 -20.8125,5.02148 -15.771001,5.11597 -24.162561,6.02333 -28.775391,3.11328 -2.986195,-1.88388 -5.944274,-6.67877 -4.816406,-7.80664 0.255274,-0.25527 -0.01009,-1.65539 -0.589844,-3.11133 -2.922211,-7.33857 -2.841286,-13.95749 0.63086,-51.14648 0.282429,-3.025 0.786941,-9.325 1.121093,-14 0.334154,-4.675 1.503887,-13.225 2.59961,-19 1.095723,-5.775 2.25152,-12.525 2.568359,-15 0.316839,-2.475 2.194073,-7.67564 4.169922,-11.55664 5.176269,-10.16734 6.959649,-14.51112 7.46875,-18.19336 0.529105,-3.82693 0.04633,-3.99676 -3.0625,-1.07617 -2.194226,2.06138 -2.312194,2.07436 -2.277344,0.25 0.02022,-1.05837 0.718625,-5.07383 1.552735,-8.92383 0.83411,-3.85 1.88327,-9.475 2.332031,-12.5 2.266599,-15.27866 4.236689,-22.21508 8.316406,-29.29492 1.519385,-2.6367 2.772396,-5.1117 2.785157,-5.5 0.01276,-0.38829 1.554459,-2.40517 3.425781,-4.48242 1.871321,-2.07724 3.568739,-4.27459 3.771484,-4.88282 0.158646,-0.47593 0.540529,-0.70374 1.087891,-0.71289 z m 176.359376,2.82227 c 1.09677,0.0589 1.30176,6.93627 0.65234,21.97656 -0.52827,12.23449 -0.78201,13.62772 -2.86328,15.70899 -1.25613,1.25613 -3.56122,2.5879 -5.12109,2.95898 -1.55987,0.37108 -7.76256,3.08973 -13.78516,6.04102 -6.02261,2.95128 -11.0161,5.36523 -11.0957,5.36523 -0.0797,0 -1.00304,-0.94913 -2.05078,-2.10938 -2.77337,-3.07114 -11.43972,-8.52474 -14.81055,-9.32031 -2.4391,-0.57566 -2.68013,-0.89239 -1.5,-1.96289 0.77333,-0.70151 5.00625,-2.79211 9.40625,-4.64648 4.4,-1.85438 9.31958,-4.29142 10.93359,-5.41602 3.58399,-2.49722 12.93428,-10.98834 16.47071,-14.95703 1.42713,-1.60157 3.8332,-4.03918 5.3457,-5.41601 1.5125,-1.37685 2.75,-2.92593 2.75,-3.44336 0,-1.04392 4.50382,-4.8419 5.66797,-4.7793 z m -104.11524,31.26953 c 0.78739,-0.0365 1.54135,-0.018 2.25586,0.0625 2.90364,0.32728 5.02547,1.19064 5.81836,2.36719 3.50679,5.2037 7.14458,9.31464 9.50782,10.74023 2.41108,1.45442 3.61135,1.45067 14.08398,-0.0391 l 11.44922,-1.62891 4.50391,2.64063 c 2.47717,1.45173 5.48543,2.63867 6.68554,2.63867 8.09718,0 26.09644,22.1722 26.13281,32.19141 0.005,1.48004 0.44458,2.96027 0.97657,3.28906 0.99079,0.61234 0.49564,5.44607 -0.92383,9.01953 -4.27999,10.77474 -13.35568,26.2354 -19.32422,32.91602 -5.08866,5.69577 -6.33513,6.55425 -10.38867,7.1621 -5.28093,0.79193 -8.46177,-0.60253 -14.52735,-6.36718 -3.65623,-3.47484 -3.68077,-3.54923 -2.13867,-6.61328 0.8577,-1.70416 3.35286,-5.25519 5.54492,-7.89258 2.19206,-2.63739 5.56974,-7.81239 7.50391,-11.5 3.47577,-6.62677 3.5091,-6.81814 3,-16.36719 -0.28329,-5.31378 -0.94956,-10.43609 -1.48047,-11.38477 -1.02939,-1.83941 -1.43365,0.0706 -2.76953,13.04688 -0.84852,8.24226 -2.97599,14.4954 -6.06445,17.82617 -1.43004,1.54222 -2.78877,2.61552 -3.01953,2.38477 -0.23075,-0.23076 0.0981,-2.839 0.73242,-5.79688 1.85118,-8.63175 0.62199,-23.28374 -2.50977,-29.91406 l -2.59765,-5.5 0.57812,8 c 1.26397,17.51134 0.76359,23.34393 -2.96094,34.51758 -1.92181,5.76544 -4.70068,13.63242 -6.17382,17.48242 -1.47315,3.85 -2.90394,8.0125 -3.17969,9.25 -0.27575,1.2375 -0.89888,2.25 -1.38477,2.25 -0.48588,0 -0.88281,0.70113 -0.88281,1.55859 0,0.85741 -0.45393,1.27982 -1.00781,0.9375 -0.55389,-0.34231 -1.31297,0.19405 -1.6875,1.19141 -0.37453,0.99736 -1.3831,2.34562 -2.24219,2.99609 -1.16261,0.88029 -1.27403,1.4748 -0.43359,2.32813 2.45016,2.48774 -14.15817,22.78238 -20.82813,25.45117 C 135.17894,348.7123 134,348.469 134,345.06445 c 0,-5.2462 -1.53535,-7.60835 -5.76953,-8.87695 -5.05199,-1.51365 -13.39245,-1.52672 -16.6875,-0.0254 -1.40321,0.63939 -2.76626,0.94663 -3.0293,0.68359 -0.60426,-0.60426 1.33702,-12.67191 2.46875,-15.3457 0.46559,-1.1 1.31606,-3.8 1.88867,-6 0.57261,-2.2 1.74123,-6.475 2.59766,-9.5 0.85643,-3.025 1.76421,-8.6122 2.01758,-12.41602 0.42854,-6.43343 0.70318,-7.11548 3.92773,-9.77343 4.29768,-3.54252 4.98697,-5.60557 3.59961,-10.75782 -1.55074,-5.75901 -4.50729,-8.23723 -8.85351,-7.42187 -3.39524,0.63695 -3.43476,0.6037 -2.70118,-2.24219 1.17791,-4.56959 2.25564,-13.34007 1.70704,-13.88867 -1.0087,-1.0087 -2.16602,-0.45804 -2.16602,1.03125 0,0.84227 -0.675,1.79084 -1.5,2.10742 -0.825,0.31659 -1.5,1.66659 -1.5,3 0,2.06345 -2.4397,4.3849 -3.39844,3.23438 -0.1712,-0.20545 0.26543,-4.7996 0.96875,-10.20899 0.85704,-6.59172 2.17957,-11.7034 4.00977,-15.5 5.85266,-12.14086 25.16186,-25.39727 36.97265,-25.94531 z m 113.91993,7.67969 -2.98633,3.29687 c -1.64222,1.81368 -3.77383,4.10413 -4.73633,5.08985 -0.9625,0.98573 -1.75,2.22532 -1.75,2.7539 0,0.52857 -0.9,0.96094 -2,0.96094 -1.4392,0 -2,0.66606 -2,2.37695 0,3.41833 1.72145,4.33517 8.5,4.52149 7.31331,0.20101 12.57525,1.53206 15.54102,3.93359 2.12071,1.71725 2.18119,2.15012 1.20507,8.73828 -0.60135,4.05865 -0.65828,7.32257 -0.13671,7.87891 1.75758,1.87482 0.78004,6.1438 -2.63477,11.5039 -1.91092,2.99952 -3.47461,6.69858 -3.47461,8.21876 0,2.17024 -1.14815,3.62868 -5.3418,6.79492 -2.93748,2.21781 -5.8175,4.0332 -6.40234,4.0332 -0.58484,0 -4.22413,1.06846 -8.08594,2.375 -3.86181,1.30655 -8.18109,2.15398 -9.59961,1.88281 -1.41853,-0.27116 -4.54573,0.003 -6.94726,0.60742 -2.40154,0.60471 -5.09832,1.38085 -5.99414,1.72461 C 224.7331,291.93359 224,291.86063 224,291.42773 c 0,-0.4329 2.475,-5.81999 5.5,-11.9707 4.93705,-10.03847 5.5,-11.8411 5.5,-17.61328 0,-5.23277 -0.55162,-7.44651 -2.96289,-11.88672 -8.99394,-16.56183 -9.01501,-16.89414 -1.28711,-20.47461 3.1625,-1.46523 9.05802,-3.95185 13.10156,-5.52539 4.04354,-1.57355 8.54354,-3.66724 10,-4.6543 1.45646,-0.98706 3.99255,-2.38215 5.63477,-3.09961 z m -102.19727,48.04297 c -2.47485,0.0868 -5.09685,1.86366 -8.78125,5.60742 -3.00381,3.0522 -5.38326,5.8647 -5.28906,6.25 0.0942,0.38529 -0.17641,2.59675 -0.59961,4.91406 -0.42318,2.31732 -0.46603,4.70352 -0.0957,5.30273 1.1313,1.83047 2.85374,0.51925 3.72265,-2.83398 0.90147,-3.47888 2.23348,-3.90095 5.20899,-1.65039 5.17459,3.91387 12.64519,0.15209 13.99609,-7.04883 0.72883,-3.88495 -0.40484,-6.64605 -3.66797,-8.93164 -1.57794,-1.10523 -3.00923,-1.66147 -4.49414,-1.60937 z m -0.56445,6.08984 c 1.42175,0.0302 2.66591,0.77365 3.22851,2.21875 0.64246,1.65023 0.45034,2.58321 -0.72265,3.5 -2.09353,1.63627 -4.37945,1.58179 -6.76172,-0.16016 -1.89175,-1.38332 -1.89344,-1.44878 -0.0371,-3.5 1.27254,-1.40614 2.87122,-2.08877 4.29297,-2.05859 z m -43.52735,3.1582 c 3.05648,-0.35311 5.32054,2.64417 4.33789,5.74024 -0.71294,2.24627 -4.08024,3.30753 -5.41015,1.70508 -0.52888,-0.63726 -1.10826,-2.50302 -1.28711,-4.14649 -0.28253,-2.59618 0.0285,-3.02955 2.35937,-3.29883 z m 151.38477,14.43946 c 0.49162,-0.0635 0.90672,-0.0563 1.22656,0.0273 1.92456,0.50328 9.20508,8.72143 9.20508,10.39063 0,0.39559 0.9,0.95452 2,1.24218 1.1,0.28766 2,1.09633 2,1.79688 0,1.5636 -8.5182,9.62709 -11.00391,10.41601 -0.99146,0.31468 -2.52855,2.10247 -3.41601,3.97266 -1.48703,3.13379 -1.48553,3.7209 0.0234,7.49219 1.87203,4.67865 3.82739,6.0332 8.70703,6.0332 h 3.4414 l -1.55664,4.75 c -4.38795,13.38033 -6.75543,19.25 -7.76172,19.25 -0.61255,0 -1.73875,-1.9125 -2.50195,-4.25 -0.76319,-2.3375 -2.35201,-6.275 -3.53125,-8.75 -2.23618,-4.69335 -4.7412,-14.76916 -5.90625,-23.75 -0.42604,-3.28416 -1.16732,-5.25 -1.97852,-5.25 -1.74656,0 -2.37213,6.15853 -1.26367,12.4375 2.27567,12.89075 3.30093,16.50606 7.25391,25.5625 5.12959,11.75212 5.51836,13.25105 6.14648,23.75 0.53613,8.96145 0.48648,9.25 -1.58984,9.25 -1.17874,0 -3.37716,-0.91271 -4.88477,-2.02734 -1.50761,-1.11462 -4.97635,-2.29332 -7.70898,-2.61914 -2.73262,-0.32582 -5.78052,-1.01692 -6.77344,-1.53711 -0.99293,-0.52019 -8.51448,-1.45508 -16.71484,-2.07813 -12.61391,-0.95838 -16.1476,-0.89712 -22.94531,0.39844 -7.92091,1.50964 -9.42374,1.26079 -6.59375,-1.08789 C 203.17129,370.61316 202.40225,368 200.25,368 198.63191,368 185,381.35256 185,382.9375 c 0,0.507 -1.9125,3.76 -4.25,7.23047 -2.3375,3.47047 -5.15,8.11439 -6.25,10.32031 l -2,4.01172 -10.91797,0.61914 c -13.13712,0.74439 -16.19293,0.13527 -15.8125,-3.14844 0.14861,-1.28277 3.47871,-7.53722 7.40039,-13.90039 3.92167,-6.36318 8.30075,-13.6369 9.73047,-16.16211 2.51096,-4.43495 4.73404,-7.38951 12.03711,-16.00781 1.8901,-2.2305 5.6904,-5.19869 8.44727,-6.5957 4.43067,-2.24519 5.77388,-2.46353 11.56445,-1.88086 3.60303,0.36256 8.12578,1.05383 10.05078,1.53515 1.925,0.48133 5.525,1.12092 8,1.42188 2.475,0.30095 9,1.30647 14.5,2.23437 11.05085,1.8644 16.30151,2.04238 21.38281,0.72657 2.96552,-0.76792 3.18858,-1.03736 1.80274,-2.1875 -1.58836,-1.31823 -5.1313,-2.04149 -22.68555,-4.62891 -5.225,-0.77014 -15.1254,-2.37376 -22,-3.5625 -11.2013,-1.93689 -13.26271,-2.02945 -19.86328,-0.90039 -8.66923,1.48292 -10.8542,3.05342 -18.65625,13.41992 -6.80707,9.04447 -8.48004,10.56941 -8.05274,7.33985 0.16899,-1.27722 0.55339,-2.99727 0.85352,-3.82227 1.50072,-4.12517 1.57872,-7.84055 0.17578,-8.37891 -0.8013,-0.30749 -1.46626,-0.0101 -1.47656,0.66016 -0.0103,0.67024 -1.50873,4.15875 -3.33008,7.75195 -1.82134,3.59321 -4.10767,9.66821 -5.08203,13.5 -0.97436,3.8318 -2.19628,7.87465 -2.71484,8.98438 -0.51857,1.10972 -0.98135,3.13472 -1.02735,4.5 -0.046,1.36527 -1.88224,6.19751 -4.08203,10.73828 l -4,8.25586 -9.62305,-0.17969 c -5.29211,-0.0992 -10.97109,0.0924 -12.62109,0.42578 -4.10789,0.83 -5.50005,0.0462 -5.49805,-3.09179 0.002,-2.95444 1.59495,-6.15132 7.39649,-14.83204 2.14466,-3.209 5.205,-8.98398 6.80078,-12.83398 1.59577,-3.85 3.37145,-7.94877 3.94531,-9.10938 0.57385,-1.16061 0.8885,-3.85693 0.69922,-5.99023 -0.18929,-2.13329 0.10625,-3.9181 0.65625,-3.9668 3.25214,-0.28819 8.6029,-1.79059 9.07031,-2.54687 0.30139,-0.48765 1.4122,-0.88672 2.46875,-0.88672 1.05655,0 4.67233,-2.62595 8.03516,-5.83594 4.09651,-3.91032 7.8152,-6.43455 11.26953,-7.64844 2.83566,-0.99648 5.73297,-2.26248 6.4375,-2.8125 0.70453,-0.54999 3.62953,-2.17456 6.5,-3.61132 7.60624,-3.80715 15.98268,-9.60056 20.26953,-14.01758 2.40496,-2.47799 4.97908,-4.05991 7.18555,-4.41797 1.89117,-0.3069 5.38727,-2.15533 7.76953,-4.10742 2.38226,-1.95208 6.51129,-4.64412 9.17578,-5.98242 2.66449,-1.3383 5.89312,-3.54886 7.17383,-4.91211 1.79516,-1.91086 3.73902,-2.62608 8.48633,-3.12305 11.64861,-1.21944 22.1689,-3.76277 27.25781,-6.58984 2.33263,-1.29588 4.49388,-2.12211 5.96875,-2.3125 z m 18.20312,12.04492 c 0.29035,0.1948 0.62773,0.3672 1.0625,0.53125 1.20674,0.45534 3.15153,0.85464 5.09571,1.22461 1.94418,0.36996 3.88804,0.71093 6.63672,0.3125 2.07613,-0.30095 4.60957,-1.02454 6.43359,-1.99805 -0.20037,6.99588 -0.63772,11.39405 -1.51367,15.25586 -0.93565,4.125 -2.10261,7.92672 -2.59375,8.44922 -0.49113,0.5225 -0.89258,2.29271 -0.89258,3.93359 0,3.14967 -3.02631,12.7356 -5.87695,18.61719 -3.01576,6.22228 -6.43731,10.67721 -10.07032,13.11133 -1.95411,1.30925 -4.1008,3.11369 -4.77148,4.00976 -0.67067,0.89606 -2.16981,1.87822 -3.33008,2.18164 -1.68112,0.43962 -1.96646,0.21142 -1.41015,-1.125 0.38395,-0.92237 0.71794,-2.24023 0.74414,-2.92773 0.0261,-0.6875 0.31002,-1.25286 0.63086,-1.25586 0.32083,-0.003 0.70572,-2.14021 0.85351,-4.75 0.29311,-5.17631 2.63389,-12.66757 6.64063,-21.24414 1.48239,-3.17309 2.57407,-7.29807 2.58007,-9.75 0.0113,-4.92322 -1.23541,-5.33673 -7.96875,-2.64258 -8.17772,3.27207 -9.45204,-0.65339 -1.99023,-6.13086 6.91227,-5.07407 9.96875,-9.32127 9.96875,-13.85351 0,-0.57379 -0.1369,-1.28132 -0.22852,-1.94922 z M 178.56055,305 c 2.12401,0 9.14388,5.76366 9.72461,7.98438 0.60142,2.29981 -3.07175,6.27337 -9.66211,10.44921 -2.81722,1.78507 -6.6316,3.76107 -8.47657,4.39063 -3.32751,1.13545 -3.34931,1.12309 -2.67968,-1.54492 C 168.8975,320.57894 177.01923,305 178.56055,305 Z m 130.60547,10.94141 1.7207,2.27929 c 1.97147,2.61051 7.11328,13.9512 7.11328,15.68946 0,0.63807 0.6308,2.15685 1.40234,3.375 1.22605,1.93576 3.59766,15.69427 3.59766,20.87304 0,1.90941 -2.44485,2.54837 -3.46094,0.9043 -0.60938,-0.986 -11.44329,-6.29763 -15.28906,-7.49609 C 303.0125,351.18077 302,350.44458 302,349.93164 302,349.41871 301.325,349 300.5,349 c -1.87321,0 -1.92057,-2.27832 -0.11914,-5.79883 0.75997,-1.48519 1.68542,-4.72617 2.05664,-7.20117 0.37121,-2.475 1.08902,-5.4 1.59375,-6.5 0.50474,-1.1 1.86572,-4.60058 3.02539,-7.7793 z" />
  </g>
</svg>
